<svg xmlns="http://www.w3.org/2000/svg" viewBox="0 0 800 600">
  <defs>
    <linearGradient id="bgGrad" x1="0%" y1="0%" x2="100%" y2="100%">
      <stop offset="0%" style="stop-color:#1e293b"/>
      <stop offset="100%" style="stop-color:#0f172a"/>
    </linearGradient>
    <linearGradient id="bookGrad" x1="0%" y1="0%" x2="100%" y2="0%">
      <stop offset="0%" style="stop-color:#7c3aed"/>
      <stop offset="100%" style="stop-color:#4f46e5"/>
    </linearGradient>
  </defs>
  <rect width="800" height="600" fill="url(#bgGrad)"/>
  <g transform="translate(100, 150)">
    <rect x="0" y="50" width="280" height="350" rx="8" fill="url(#bookGrad)" opacity="0.9"/>
    <rect x="15" y="65" width="250" height="320" rx="4" fill="#1e293b" opacity="0.5"/>
    <rect x="30" y="80" width="220" height="8" rx="2" fill="#a78bfa" opacity="0.6"/>
    <rect x="30" y="100" width="180" height="6" rx="2" fill="#a78bfa" opacity="0.4"/>
    <rect x="30" y="115" width="200" height="6" rx="2" fill="#a78bfa" opacity="0.4"/>
    <rect x="30" y="130" width="160" height="6" rx="2" fill="#a78bfa" opacity="0.4"/>
    <rect x="30" y="160" width="220" height="8" rx="2" fill="#a78bfa" opacity="0.6"/>
    <rect x="30" y="180" width="190" height="6" rx="2" fill="#a78bfa" opacity="0.4"/>
    <rect x="30" y="195" width="170" height="6" rx="2" fill="#a78bfa" opacity="0.4"/>
    <rect x="30" y="240" width="220" height="8" rx="2" fill="#a78bfa" opacity="0.6"/>
    <rect x="30" y="260" width="200" height="6" rx="2" fill="#a78bfa" opacity="0.4"/>
    <rect x="30" y="275" width="180" height="6" rx="2" fill="#a78bfa" opacity="0.4"/>
    <circle cx="140" cy="220" r="40" fill="#c4b5fd" opacity="0.3"/>
    <text x="140" y="230" font-family="serif" font-size="48" fill="#e9d5ff" text-anchor="middle" opacity="0.8">A</text>
  </g>
</svg>